<?xml version="1.0" encoding="utf-8" ?>
<svg baseProfile="tiny" height="513" version="1.2" width="605" xmlns="http://www.w3.org/2000/svg" xmlns:ev="http://www.w3.org/2001/xml-events" xmlns:xlink="http://www.w3.org/1999/xlink"><defs /><path d="M 577,512 L 599,512 Z" fill="#FBBF24" stroke="none" /><path d="M 536,512 L 575,512 Z" fill="#FBBF24" stroke="none" /><path d="M 512,512 L 534,512 Z" fill="#FBBF24" stroke="none" /><path d="M 489,512 L 510,512 Z" fill="#FBBF24" stroke="none" /><path d="M 463,512 L 487,512 Z" fill="#FBBF24" stroke="none" /><path d="M 456,512 L 461,512 Z" fill="#FBBF24" stroke="none" /><path d="M 432,512 L 453,512 Z" fill="#FBBF24" stroke="none" /><path d="M 416,512 L 430,512 Z" fill="#FBBF24" stroke="none" /><path d="M 414,512 Z" fill="#FBBF24" stroke="none" /><path d="M 387,512 L 412,512 Z" fill="#FBBF24" stroke="none" /><path d="M 384,512 L 385,512 Z" fill="#FBBF24" stroke="none" /><path d="M 367,512 L 381,512 Z" fill="#FBBF24" stroke="none" /><path d="M 351,512 L 365,512 Z" fill="#FBBF24" stroke="none" /><path d="M 348,512 Z" fill="#FBBF24" stroke="none" /><path d="M 344,512 L 346,512 Z" fill="#FBBF24" stroke="none" /><path d="M 311,512 L 342,512 Z" fill="#FBBF24" stroke="none" /><path d="M 290,512 L 309,512 Z" fill="#FBBF24" stroke="none" /><path d="M 264,512 L 288,512 Z" fill="#FBBF24" stroke="none" /><path d="M 248,512 L 262,512 Z" fill="#FBBF24" stroke="none" /><path d="M 219,512 L 246,512 Z" fill="#FBBF24" stroke="none" /><path d="M 214,512 L 217,512 Z" fill="#FBBF24" stroke="none" /><path d="M 195,512 L 212,512 Z" fill="#FBBF24" stroke="none" /><path d="M 184,512 L 193,512 Z" fill="#FBBF24" stroke="none" /><path d="M 182,512 Z" fill="#FBBF24" stroke="none" /><path d="M 125,512 L 180,512 Z" fill="#FBBF24" stroke="none" /><path d="M 122,512 L 123,512 Z" fill="#FBBF24" stroke="none" /><path d="M 86,512 L 120,512 Z" fill="#FBBF24" stroke="none" /><path d="M 72,512 L 84,512 Z" fill="#FBBF24" stroke="none" /><path d="M 4,512 L 70,512 Z" fill="#FBBF24" stroke="none" /><path d="M 603,506 L 603,508 L 604,509 L 603,508 Z" fill="#FBBF24" stroke="none" /><path d="M 603,504 Z" fill="#FBBF24" stroke="none" /><path d="M 603,501 L 603,502 Z" fill="#FBBF24" stroke="none" /><path d="M 603,496 L 603,499 Z" fill="#FBBF24" stroke="none" /><path d="M 603,494 Z" fill="#FBBF24" stroke="none" /><path d="M 603,491 L 603,492 Z" fill="#FBBF24" stroke="none" /><path d="M 603,483 L 604,483 Z" fill="#FBBF24" stroke="none" /><path d="M 0,480 L 0,507 Z" fill="#FBBF24" stroke="none" /><path d="M 603,479 L 603,480 Z" fill="#FBBF24" stroke="none" /><path d="M 2,479 L 2,509 L 3,510 L 599,510 L 600,509 L 601,509 L 601,479 Z" fill="#FBBF24" stroke="none" /><path d="M 3,477 L 601,477 Z" fill="#FBBF24" stroke="none" /><path d="M 371,462 Z" fill="#FBBF24" stroke="none" /><path d="M 69,461 Z" fill="#FBBF24" stroke="none" /><path d="M 565,460 L 566,460 Z" fill="#FBBF24" stroke="none" /><path d="M 557,460 L 561,460 Z" fill="#FBBF24" stroke="none" /><path d="M 545,460 Z" fill="#FBBF24" stroke="none" /><path d="M 541,460 L 543,460 Z" fill="#FBBF24" stroke="none" /><path d="M 534,460 L 535,460 Z" fill="#FBBF24" stroke="none" /><path d="M 529,460 L 531,460 Z" fill="#FBBF24" stroke="none" /><path d="M 527,460 Z" fill="#FBBF24" stroke="none" /><path d="M 524,460 Z" fill="#FBBF24" stroke="none" /><path d="M 516,460 L 519,460 Z" fill="#FBBF24" stroke="none" /><path d="M 511,460 L 513,460 Z" fill="#FBBF24" stroke="none" /><path d="M 508,460 L 509,460 Z" fill="#FBBF24" stroke="none" /><path d="M 505,460 Z" fill="#FBBF24" stroke="none" /><path d="M 500,460 L 501,460 Z" fill="#FBBF24" stroke="none" /><path d="M 497,460 L 498,460 Z" fill="#FBBF24" stroke="none" /><path d="M 494,460 Z" fill="#FBBF24" stroke="none" /><path d="M 487,460 Z" fill="#FBBF24" stroke="none" /><path d="M 482,460 L 484,460 Z" fill="#FBBF24" stroke="none" /><path d="M 477,460 Z" fill="#FBBF24" stroke="none" /><path d="M 475,460 Z" fill="#FBBF24" stroke="none" /><path d="M 469,460 L 470,460 Z" fill="#FBBF24" stroke="none" /><path d="M 467,460 Z" fill="#FBBF24" stroke="none" /><path d="M 462,460 Z" fill="#FBBF24" stroke="none" /><path d="M 460,460 Z" fill="#FBBF24" stroke="none" /><path d="M 455,460 L 457,460 Z" fill="#FBBF24" stroke="none" /><path d="M 451,460 Z" fill="#FBBF24" stroke="none" /><path d="M 447,460 L 448,460 Z" fill="#FBBF24" stroke="none" /><path d="M 443,460 L 444,460 Z" fill="#FBBF24" stroke="none" /><path d="M 439,460 Z" fill="#FBBF24" stroke="none" /><path d="M 436,460 L 437,460 Z" fill="#FBBF24" stroke="none" /><path d="M 433,460 L 434,460 Z" fill="#FBBF24" stroke="none" /><path d="M 429,460 L 431,460 Z" fill="#FBBF24" stroke="none" /><path d="M 427,460 Z" fill="#FBBF24" stroke="none" /><path d="M 424,460 Z" fill="#FBBF24" stroke="none" /><path d="M 417,460 Z" fill="#FBBF24" stroke="none" /><path d="M 415,460 Z" fill="#FBBF24" stroke="none" /><path d="M 413,460 Z" fill="#FBBF24" stroke="none" /><path d="M 404,460 L 407,460 Z" fill="#FBBF24" stroke="none" /><path d="M 396,460 L 400,460 Z" fill="#FBBF24" stroke="none" /><path d="M 388,460 L 388,461 L 389,460 L 392,460 Z" fill="#FBBF24" stroke="none" /><path d="M 381,460 Z" fill="#FBBF24" stroke="none" /><path d="M 379,460 Z" fill="#FBBF24" stroke="none" /><path d="M 372,460 L 373,460 Z" fill="#FBBF24" stroke="none" /><path d="M 365,460 L 367,460 Z" fill="#FBBF24" stroke="none" /><path d="M 357,460 Z" fill="#FBBF24" stroke="none" /><path d="M 354,460 Z" fill="#FBBF24" stroke="none" /><path d="M 350,460 L 351,460 Z" fill="#FBBF24" stroke="none" /><path d="M 348,460 Z" fill="#FBBF24" stroke="none" /><path d="M 340,460 L 342,460 Z" fill="#FBBF24" stroke="none" /><path d="M 335,460 L 337,460 Z" fill="#FBBF24" stroke="none" /><path d="M 331,460 L 333,460 Z" fill="#FBBF24" stroke="none" /><path d="M 328,460 Z" fill="#FBBF24" stroke="none" /><path d="M 316,460 L 319,460 Z" fill="#FBBF24" stroke="none" /><path d="M 311,460 Z" fill="#FBBF24" stroke="none" /><path d="M 308,460 L 309,460 Z" fill="#FBBF24" stroke="none" /><path d="M 302,460 Z" fill="#FBBF24" stroke="none" /><path d="M 297,460 Z" fill="#FBBF24" stroke="none" /><path d="M 294,460 Z" fill="#FBBF24" stroke="none" /><path d="M 286,460 L 287,460 Z" fill="#FBBF24" stroke="none" /><path d="M 282,460 L 284,460 Z" fill="#FBBF24" stroke="none" /><path d="M 277,460 L 279,460 Z" fill="#FBBF24" stroke="none" /><path d="M 268,460 L 273,460 Z" fill="#FBBF24" stroke="none" /><path d="M 262,460 Z" fill="#FBBF24" stroke="none" /><path d="M 260,460 Z" fill="#FBBF24" stroke="none" /><path d="M 253,460 L 257,460 Z" fill="#FBBF24" stroke="none" /><path d="M 250,460 Z" fill="#FBBF24" stroke="none" /><path d="M 244,460 L 248,460 Z" fill="#FBBF24" stroke="none" /><path d="M 241,460 Z" fill="#FBBF24" stroke="none" /><path d="M 236,460 L 237,460 Z" fill="#FBBF24" stroke="none" /><path d="M 231,460 L 233,460 Z" fill="#FBBF24" stroke="none" /><path d="M 229,460 Z" fill="#FBBF24" stroke="none" /><path d="M 219,460 L 224,460 Z" fill="#FBBF24" stroke="none" /><path d="M 216,460 Z" fill="#FBBF24" stroke="none" /><path d="M 213,460 Z" fill="#FBBF24" stroke="none" /><path d="M 208,460 Z" fill="#FBBF24" stroke="none" /><path d="M 206,460 Z" fill="#FBBF24" stroke="none" /><path d="M 199,460 L 202,460 Z" fill="#FBBF24" stroke="none" /><path d="M 196,460 L 197,460 Z" fill="#FBBF24" stroke="none" /><path d="M 191,460 L 194,460 Z" fill="#FBBF24" stroke="none" /><path d="M 188,460 L 189,460 Z" fill="#FBBF24" stroke="none" /><path d="M 181,460 L 185,460 Z" fill="#FBBF24" stroke="none" /><path d="M 170,460 L 172,460 Z" fill="#FBBF24" stroke="none" /><path d="M 165,460 Z" fill="#FBBF24" stroke="none" /><path d="M 160,460 L 163,460 Z" fill="#FBBF24" stroke="none" /><path d="M 155,460 L 157,460 Z" fill="#FBBF24" stroke="none" /><path d="M 148,460 L 151,460 Z" fill="#FBBF24" stroke="none" /><path d="M 143,460 L 145,460 Z" fill="#FBBF24" stroke="none" /><path d="M 141,460 Z" fill="#FBBF24" stroke="none" /><path d="M 136,460 L 138,460 Z" fill="#FBBF24" stroke="none" /><path d="M 132,460 Z" fill="#FBBF24" stroke="none" /><path d="M 127,460 Z" fill="#FBBF24" stroke="none" /><path d="M 125,460 Z" fill="#FBBF24" stroke="none" /><path d="M 119,460 Z" fill="#FBBF24" stroke="none" /><path d="M 111,460 L 116,460 Z" fill="#FBBF24" stroke="none" /><path d="M 109,460 Z" fill="#FBBF24" stroke="none" /><path d="M 103,460 Z" fill="#FBBF24" stroke="none" /><path d="M 101,460 Z" fill="#FBBF24" stroke="none" /><path d="M 94,460 L 97,460 Z" fill="#FBBF24" stroke="none" /><path d="M 92,460 Z" fill="#FBBF24" stroke="none" /><path d="M 85,460 L 87,460 Z" fill="#FBBF24" stroke="none" /><path d="M 81,460 Z" fill="#FBBF24" stroke="none" /><path d="M 78,460 Z" fill="#FBBF24" stroke="none" /><path d="M 75,460 Z" fill="#FBBF24" stroke="none" /><path d="M 73,460 Z" fill="#FBBF24" stroke="none" /><path d="M 66,460 L 67,460 Z" fill="#FBBF24" stroke="none" /><path d="M 63,460 Z" fill="#FBBF24" stroke="none" /><path d="M 60,460 L 60,461 Z" fill="#FBBF24" stroke="none" /><path d="M 52,460 L 55,460 Z" fill="#FBBF24" stroke="none" /><path d="M 44,460 L 48,460 Z" fill="#FBBF24" stroke="none" /><path d="M 42,460 Z" fill="#FBBF24" stroke="none" /><path d="M 36,460 L 37,460 Z" fill="#FBBF24" stroke="none" /><path d="M 29,460 L 30,460 Z" fill="#FBBF24" stroke="none" /><path d="M 21,443 Z" fill="#FBBF24" stroke="none" /><path d="M 21,435 L 21,436 Z" fill="#FBBF24" stroke="none" /><path d="M 582,430 L 582,441 Z" fill="#FBBF24" stroke="none" /><path d="M 21,430 L 21,432 Z" fill="#FBBF24" stroke="none" /><path d="M 581,428 L 580,429 L 24,429 L 24,456 L 23,457 L 24,458 L 25,457 L 53,457 L 54,458 L 55,457 L 75,457 L 76,458 L 77,458 L 78,457 L 107,457 L 108,458 L 109,457 L 163,457 L 164,458 L 165,457 L 179,457 L 180,458 L 182,458 L 183,457 L 223,457 L 224,458 L 228,458 L 229,457 L 248,457 L 249,458 L 250,457 L 281,457 L 282,458 L 283,457 L 296,457 L 297,458 L 298,457 L 307,457 L 308,458 L 309,457 L 315,457 L 316,458 L 317,457 L 332,457 L 333,458 L 334,457 L 339,457 L 340,458 L 342,458 L 343,457 L 349,457 L 350,458 L 351,457 L 352,457 L 353,458 L 356,458 L 357,457 L 361,457 L 362,458 L 363,457 L 364,458 L 365,457 L 459,457 L 460,458 L 461,457 L 466,457 L 467,458 L 468,457 L 475,457 L 476,458 L 477,457 L 499,457 L 500,458 L 501,457 L 578,457 L 579,458 L 580,457 L 579,456 L 579,431 L 580,430 L 580,429 Z" fill="#FBBF24" stroke="none" /><path d="M 577,427 L 579,427 Z" fill="#FBBF24" stroke="none" /><path d="M 570,427 L 575,427 Z" fill="#FBBF24" stroke="none" /><path d="M 567,427 Z" fill="#FBBF24" stroke="none" /><path d="M 563,427 Z" fill="#FBBF24" stroke="none" /><path d="M 556,427 Z" fill="#FBBF24" stroke="none" /><path d="M 550,427 L 551,427 Z" fill="#FBBF24" stroke="none" /><path d="M 537,427 L 539,427 Z" fill="#FBBF24" stroke="none" /><path d="M 534,427 L 535,427 Z" fill="#FBBF24" stroke="none" /><path d="M 532,427 Z" fill="#FBBF24" stroke="none" /><path d="M 527,427 Z" fill="#FBBF24" stroke="none" /><path d="M 509,427 Z" fill="#FBBF24" stroke="none" /><path d="M 505,427 Z" fill="#FBBF24" stroke="none" /><path d="M 501,427 L 502,427 Z" fill="#FBBF24" stroke="none" /><path d="M 498,427 Z" fill="#FBBF24" stroke="none" /><path d="M 490,427 L 492,427 Z" fill="#FBBF24" stroke="none" /><path d="M 488,427 Z" fill="#FBBF24" stroke="none" /><path d="M 486,427 Z" fill="#FBBF24" stroke="none" /><path d="M 484,427 Z" fill="#FBBF24" stroke="none" /><path d="M 471,427 Z" fill="#FBBF24" stroke="none" /><path d="M 469,427 Z" fill="#FBBF24" stroke="none" /><path d="M 459,427 Z" fill="#FBBF24" stroke="none" /><path d="M 451,427 Z" fill="#FBBF24" stroke="none" /><path d="M 447,427 L 449,427 Z" fill="#FBBF24" stroke="none" /><path d="M 440,427 Z" fill="#FBBF24" stroke="none" /><path d="M 438,427 Z" fill="#FBBF24" stroke="none" /><path d="M 428,427 Z" fill="#FBBF24" stroke="none" /><path d="M 423,427 L 424,427 Z" fill="#FBBF24" stroke="none" /><path d="M 419,427 L 420,427 Z" fill="#FBBF24" stroke="none" /><path d="M 409,427 Z" fill="#FBBF24" stroke="none" /><path d="M 393,427 Z" fill="#FBBF24" stroke="none" /><path d="M 387,427 L 391,427 Z" fill="#FBBF24" stroke="none" /><path d="M 385,427 Z" fill="#FBBF24" stroke="none" /><path d="M 381,427 L 383,427 Z" fill="#FBBF24" stroke="none" /><path d="M 379,427 Z" fill="#FBBF24" stroke="none" /><path d="M 373,427 L 374,427 Z" fill="#FBBF24" stroke="none" /><path d="M 369,427 L 370,427 Z" fill="#FBBF24" stroke="none" /><path d="M 349,427 L 355,427 Z" fill="#FBBF24" stroke="none" /><path d="M 346,427 L 347,427 Z" fill="#FBBF24" stroke="none" /><path d="M 338,427 L 343,427 Z" fill="#FBBF24" stroke="none" /><path d="M 333,427 Z" fill="#FBBF24" stroke="none" /><path d="M 318,427 L 325,427 Z" fill="#FBBF24" stroke="none" /><path d="M 313,427 L 316,427 Z" fill="#FBBF24" stroke="none" /><path d="M 302,427 Z" fill="#FBBF24" stroke="none" /><path d="M 296,427 L 300,427 Z" fill="#FBBF24" stroke="none" /><path d="M 288,427 Z" fill="#FBBF24" stroke="none" /><path d="M 284,427 Z" fill="#FBBF24" stroke="none" /><path d="M 282,427 Z" fill="#FBBF24" stroke="none" /><path d="M 279,427 Z" fill="#FBBF24" stroke="none" /><path d="M 275,427 Z" fill="#FBBF24" stroke="none" /><path d="M 273,427 Z" fill="#FBBF24" stroke="none" /><path d="M 270,427 L 271,427 Z" fill="#FBBF24" stroke="none" /><path d="M 262,427 L 264,427 Z" fill="#FBBF24" stroke="none" /><path d="M 259,427 Z" fill="#FBBF24" stroke="none" /><path d="M 253,427 L 257,427 Z" fill="#FBBF24" stroke="none" /><path d="M 245,427 Z" fill="#FBBF24" stroke="none" /><path d="M 238,427 Z" fill="#FBBF24" stroke="none" /><path d="M 234,427 Z" fill="#FBBF24" stroke="none" /><path d="M 220,427 Z" fill="#FBBF24" stroke="none" /><path d="M 213,427 Z" fill="#FBBF24" stroke="none" /><path d="M 199,427 Z" fill="#FBBF24" stroke="none" /><path d="M 177,427 L 180,427 Z" fill="#FBBF24" stroke="none" /><path d="M 174,427 L 175,427 Z" fill="#FBBF24" stroke="none" /><path d="M 172,427 Z" fill="#FBBF24" stroke="none" /><path d="M 167,427 L 169,427 Z" fill="#FBBF24" stroke="none" /><path d="M 165,427 Z" fill="#FBBF24" stroke="none" /><path d="M 160,427 L 161,427 Z" fill="#FBBF24" stroke="none" /><path d="M 156,427 L 157,427 Z" fill="#FBBF24" stroke="none" /><path d="M 154,427 Z" fill="#FBBF24" stroke="none" /><path d="M 151,427 Z" fill="#FBBF24" stroke="none" /><path d="M 148,427 Z" fill="#FBBF24" stroke="none" /><path d="M 132,427 Z" fill="#FBBF24" stroke="none" /><path d="M 130,427 Z" fill="#FBBF24" stroke="none" /><path d="M 128,427 Z" fill="#FBBF24" stroke="none" /><path d="M 125,427 Z" fill="#FBBF24" stroke="none" /><path d="M 123,427 Z" fill="#FBBF24" stroke="none" /><path d="M 121,427 Z" fill="#FBBF24" stroke="none" /><path d="M 113,427 L 114,427 Z" fill="#FBBF24" stroke="none" /><path d="M 110,427 L 111,427 Z" fill="#FBBF24" stroke="none" /><path d="M 107,427 Z" fill="#FBBF24" stroke="none" /><path d="M 101,427 L 103,427 Z" fill="#FBBF24" stroke="none" /><path d="M 95,427 Z" fill="#FBBF24" stroke="none" /><path d="M 91,427 L 92,427 Z" fill="#FBBF24" stroke="none" /><path d="M 85,427 L 89,427 Z" fill="#FBBF24" stroke="none" /><path d="M 70,427 L 76,427 Z" fill="#FBBF24" stroke="none" /><path d="M 67,427 Z" fill="#FBBF24" stroke="none" /><path d="M 65,427 Z" fill="#FBBF24" stroke="none" /><path d="M 63,427 Z" fill="#FBBF24" stroke="none" /><path d="M 59,427 L 60,427 Z" fill="#FBBF24" stroke="none" /><path d="M 55,427 Z" fill="#FBBF24" stroke="none" /><path d="M 51,427 L 52,427 Z" fill="#FBBF24" stroke="none" /><path d="M 49,427 Z" fill="#FBBF24" stroke="none" /><path d="M 45,427 Z" fill="#FBBF24" stroke="none" /><path d="M 42,427 Z" fill="#FBBF24" stroke="none" /><path d="M 38,427 L 39,427 Z" fill="#FBBF24" stroke="none" /><path d="M 33,427 Z" fill="#FBBF24" stroke="none" /><path d="M 31,427 Z" fill="#FBBF24" stroke="none" /><path d="M 553,426 L 554,427 Z" fill="#FBBF24" stroke="none" /><path d="M 547,426 Z" fill="#FBBF24" stroke="none" /><path d="M 525,426 Z" fill="#FBBF24" stroke="none" /><path d="M 519,426 L 519,427 L 520,426 Z" fill="#FBBF24" stroke="none" /><path d="M 515,426 L 514,427 L 513,427 L 514,427 Z" fill="#FBBF24" stroke="none" /><path d="M 494,426 Z" fill="#FBBF24" stroke="none" /><path d="M 479,426 L 478,427 L 480,427 L 481,426 L 482,427 L 481,426 L 480,427 Z" fill="#FBBF24" stroke="none" /><path d="M 465,426 Z" fill="#FBBF24" stroke="none" /><path d="M 463,426 L 462,427 L 461,427 L 462,427 Z" fill="#FBBF24" stroke="none" /><path d="M 457,426 L 457,427 Z" fill="#FBBF24" stroke="none" /><path d="M 433,426 L 434,427 Z" fill="#FBBF24" stroke="none" /><path d="M 413,426 L 412,427 L 415,427 L 414,427 Z" fill="#FBBF24" stroke="none" /><path d="M 402,426 L 401,427 L 403,427 Z" fill="#FBBF24" stroke="none" /><path d="M 398,426 L 399,427 L 399,426 Z" fill="#FBBF24" stroke="none" /><path d="M 395,426 L 395,427 L 396,427 Z" fill="#FBBF24" stroke="none" /><path d="M 377,426 Z" fill="#FBBF24" stroke="none" /><path d="M 366,426 L 367,427 Z" fill="#FBBF24" stroke="none" /><path d="M 360,426 Z" fill="#FBBF24" stroke="none" /><path d="M 294,426 L 293,427 L 291,427 L 293,427 Z" fill="#FBBF24" stroke="none" /><path d="M 286,426 Z" fill="#FBBF24" stroke="none" /><path d="M 266,426 L 266,427 L 267,427 Z" fill="#FBBF24" stroke="none" /><path d="M 243,426 Z" fill="#FBBF24" stroke="none" /><path d="M 241,426 Z" fill="#FBBF24" stroke="none" /><path d="M 236,426 Z" fill="#FBBF24" stroke="none" /><path d="M 230,426 L 230,427 L 231,427 Z" fill="#FBBF24" stroke="none" /><path d="M 201,426 L 202,427 L 204,427 L 202,427 Z" fill="#FBBF24" stroke="none" /><path d="M 183,426 Z" fill="#FBBF24" stroke="none" /><path d="M 142,426 L 143,426 Z" fill="#FBBF24" stroke="none" /><path d="M 484,425 Z" fill="#FBBF24" stroke="none" /><path d="M 521,404 Z" fill="#FBBF24" stroke="none" /><path d="M 557,403 Z" fill="#FBBF24" stroke="none" /><path d="M 553,403 L 555,403 Z" fill="#FBBF24" stroke="none" /><path d="M 551,403 Z" fill="#FBBF24" stroke="none" /><path d="M 540,403 Z" fill="#FBBF24" stroke="none" /><path d="M 531,403 L 533,403 Z" fill="#FBBF24" stroke="none" /><path d="M 519,403 Z" fill="#FBBF24" stroke="none" /><path d="M 517,403 Z" fill="#FBBF24" stroke="none" /><path d="M 397,403 Z" fill="#FBBF24" stroke="none" /><path d="M 387,403 Z" fill="#FBBF24" stroke="none" /><path d="M 229,403 Z" fill="#FBBF24" stroke="none" /><path d="M 213,403 Z" fill="#FBBF24" stroke="none" /><path d="M 207,403 L 208,403 Z" fill="#FBBF24" stroke="none" /><path d="M 204,403 L 205,403 Z" fill="#FBBF24" stroke="none" /><path d="M 53,403 Z" fill="#FBBF24" stroke="none" /><path d="M 560,399 Z" fill="#FBBF24" stroke="none" /><path d="M 358,399 L 358,400 Z" fill="#FBBF24" stroke="none" /><path d="M 246,399 Z" fill="#FBBF24" stroke="none" /><path d="M 560,396 L 560,397 Z" fill="#FBBF24" stroke="none" /><path d="M 43,396 L 43,398 Z" fill="#FBBF24" stroke="none" /><path d="M 560,393 Z" fill="#FBBF24" stroke="none" /><path d="M 560,391 Z" fill="#FBBF24" stroke="none" /><path d="M 358,391 L 358,397 Z" fill="#FBBF24" stroke="none" /><path d="M 246,391 L 246,392 Z" fill="#FBBF24" stroke="none" /><path d="M 43,389 Z" fill="#FBBF24" stroke="none" /><path d="M 358,386 L 358,389 Z" fill="#FBBF24" stroke="none" /><path d="M 246,386 L 246,389 Z" fill="#FBBF24" stroke="none" /><path d="M 246,384 Z" fill="#FBBF24" stroke="none" /><path d="M 560,383 Z" fill="#FBBF24" stroke="none" /><path d="M 403,383 Z" fill="#FBBF24" stroke="none" /><path d="M 358,381 L 358,384 Z" fill="#FBBF24" stroke="none" /><path d="M 246,381 Z" fill="#FBBF24" stroke="none" /><path d="M 43,381 Z" fill="#FBBF24" stroke="none" /><path d="M 560,380 Z" fill="#FBBF24" stroke="none" /><path d="M 246,379 Z" fill="#FBBF24" stroke="none" /><path d="M 403,378 Z" fill="#FBBF24" stroke="none" /><path d="M 560,377 Z" fill="#FBBF24" stroke="none" /><path d="M 560,375 Z" fill="#FBBF24" stroke="none" /><path d="M 43,375 L 43,379 Z" fill="#FBBF24" stroke="none" /><path d="M 403,374 Z" fill="#FBBF24" stroke="none" /><path d="M 43,373 Z" fill="#FBBF24" stroke="none" /><path d="M 43,369 Z" fill="#FBBF24" stroke="none" /><path d="M 560,367 Z" fill="#FBBF24" stroke="none" /><path d="M 403,366 Z" fill="#FBBF24" stroke="none" /><path d="M 246,365 Z" fill="#FBBF24" stroke="none" /><path d="M 43,363 L 43,364 Z" fill="#FBBF24" stroke="none" /><path d="M 560,362 Z" fill="#FBBF24" stroke="none" /><path d="M 560,359 Z" fill="#FBBF24" stroke="none" /><path d="M 43,357 Z" fill="#FBBF24" stroke="none" /><path d="M 246,356 Z" fill="#FBBF24" stroke="none" /><path d="M 246,354 Z" fill="#FBBF24" stroke="none" /><path d="M 246,352 Z" fill="#FBBF24" stroke="none" /><path d="M 560,350 L 560,351 Z" fill="#FBBF24" stroke="none" /><path d="M 403,350 L 403,352 Z" fill="#FBBF24" stroke="none" /><path d="M 43,350 Z" fill="#FBBF24" stroke="none" /><path d="M 246,349 L 246,350 Z" fill="#FBBF24" stroke="none" /><path d="M 358,344 L 358,379 Z" fill="#FBBF24" stroke="none" /><path d="M 560,332 Z" fill="#FBBF24" stroke="none" /><path d="M 43,331 Z" fill="#FBBF24" stroke="none" /><path d="M 560,330 Z" fill="#FBBF24" stroke="none" /><path d="M 246,326 Z" fill="#FBBF24" stroke="none" /><path d="M 560,324 Z" fill="#FBBF24" stroke="none" /><path d="M 403,323 Z" fill="#FBBF24" stroke="none" /><path d="M 89,319 Z" fill="#FBBF24" stroke="none" /><path d="M 560,316 Z" fill="#FBBF24" stroke="none" /><path d="M 43,315 Z" fill="#FBBF24" stroke="none" /><path d="M 560,314 Z" fill="#FBBF24" stroke="none" /><path d="M 246,312 L 246,314 Z" fill="#FBBF24" stroke="none" /><path d="M 404,310 L 403,311 Z" fill="#FBBF24" stroke="none" /><path d="M 560,308 Z" fill="#FBBF24" stroke="none" /><path d="M 43,308 Z" fill="#FBBF24" stroke="none" /><path d="M 246,306 Z" fill="#FBBF24" stroke="none" /><path d="M 560,304 Z" fill="#FBBF24" stroke="none" /><path d="M 246,303 L 246,304 Z" fill="#FBBF24" stroke="none" /><path d="M 89,303 Z" fill="#FBBF24" stroke="none" /><path d="M 560,300 Z" fill="#FBBF24" stroke="none" /><path d="M 560,298 Z" fill="#FBBF24" stroke="none" /><path d="M 246,297 L 246,298 Z" fill="#FBBF24" stroke="none" /><path d="M 560,292 Z" fill="#FBBF24" stroke="none" /><path d="M 89,292 Z" fill="#FBBF24" stroke="none" /><path d="M 403,291 L 403,292 Z" fill="#FBBF24" stroke="none" /><path d="M 246,291 L 246,293 Z" fill="#FBBF24" stroke="none" /><path d="M 43,288 Z" fill="#FBBF24" stroke="none" /><path d="M 246,287 L 246,288 Z" fill="#FBBF24" stroke="none" /><path d="M 246,285 Z" fill="#FBBF24" stroke="none" /><path d="M 43,282 Z" fill="#FBBF24" stroke="none" /><path d="M 560,281 Z" fill="#FBBF24" stroke="none" /><path d="M 246,281 Z" fill="#FBBF24" stroke="none" /><path d="M 89,276 Z" fill="#FBBF24" stroke="none" /><path d="M 43,275 Z" fill="#FBBF24" stroke="none" /><path d="M 246,272 Z" fill="#FBBF24" stroke="none" /><path d="M 43,271 Z" fill="#FBBF24" stroke="none" /><path d="M 43,269 Z" fill="#FBBF24" stroke="none" /><path d="M 246,263 L 246,264 Z" fill="#FBBF24" stroke="none" /><path d="M 43,259 Z" fill="#FBBF24" stroke="none" /><path d="M 246,255 L 246,256 Z" fill="#FBBF24" stroke="none" /><path d="M 403,254 Z" fill="#FBBF24" stroke="none" /><path d="M 43,250 Z" fill="#FBBF24" stroke="none" /><path d="M 246,249 L 246,250 Z" fill="#FBBF24" stroke="none" /><path d="M 43,248 Z" fill="#FBBF24" stroke="none" /><path d="M 403,246 Z" fill="#FBBF24" stroke="none" /><path d="M 246,245 Z" fill="#FBBF24" stroke="none" /><path d="M 43,243 Z" fill="#FBBF24" stroke="none" /><path d="M 403,239 Z" fill="#FBBF24" stroke="none" /><path d="M 43,229 Z" fill="#FBBF24" stroke="none" /><path d="M 560,226 L 560,227 Z" fill="#FBBF24" stroke="none" /><path d="M 246,224 L 246,225 Z" fill="#FBBF24" stroke="none" /><path d="M 560,223 L 560,224 Z" fill="#FBBF24" stroke="none" /><path d="M 403,221 L 403,222 Z" fill="#FBBF24" stroke="none" /><path d="M 403,216 L 403,217 L 404,217 Z" fill="#FBBF24" stroke="none" /><path d="M 43,212 Z" fill="#FBBF24" stroke="none" /><path d="M 403,211 L 403,214 Z" fill="#FBBF24" stroke="none" /><path d="M 246,211 L 246,216 Z" fill="#FBBF24" stroke="none" /><path d="M 246,209 Z" fill="#FBBF24" stroke="none" /><path d="M 515,208 L 515,400 Z" fill="#FBBF24" stroke="none" /><path d="M 358,208 L 358,287 L 357,288 L 358,289 L 358,342 Z" fill="#FBBF24" stroke="none" /><path d="M 201,208 L 201,400 Z" fill="#FBBF24" stroke="none" /><path d="M 246,206 Z" fill="#FBBF24" stroke="none" /><path d="M 403,205 L 403,208 Z" fill="#FBBF24" stroke="none" /><path d="M 89,205 L 89,206 Z" fill="#FBBF24" stroke="none" /><path d="M 404,201 L 404,202 Z" fill="#FBBF24" stroke="none" /><path d="M 247,200 Z" fill="#FBBF24" stroke="none" /><path d="M 90,200 Z" fill="#FBBF24" stroke="none" /><path d="M 356,199 Z" fill="#FBBF24" stroke="none" /><path d="M 513,198 L 513,199 Z" fill="#FBBF24" stroke="none" /><path d="M 512,196 Z" fill="#FBBF24" stroke="none" /><path d="M 355,196 Z" fill="#FBBF24" stroke="none" /><path d="M 198,196 Z" fill="#FBBF24" stroke="none" /><path d="M 92,196 L 91,197 L 91,198 L 91,197 Z" fill="#FBBF24" stroke="none" /><path d="M 406,195 L 406,196 L 405,197 L 405,198 L 405,197 L 406,196 Z" fill="#FBBF24" stroke="none" /><path d="M 509,194 Z" fill="#FBBF24" stroke="none" /><path d="M 249,194 L 249,195 L 250,194 Z" fill="#FBBF24" stroke="none" /><path d="M 511,193 Z" fill="#FBBF24" stroke="none" /><path d="M 407,193 Z" fill="#FBBF24" stroke="none" /><path d="M 354,193 L 354,194 Z" fill="#FBBF24" stroke="none" /><path d="M 197,193 L 197,194 Z" fill="#FBBF24" stroke="none" /><path d="M 250,192 Z" fill="#FBBF24" stroke="none" /><path d="M 43,192 L 43,193 Z" fill="#FBBF24" stroke="none" /><path d="M 94,190 Z" fill="#FBBF24" stroke="none" /><path d="M 560,189 Z" fill="#FBBF24" stroke="none" /><path d="M 508,188 Z" fill="#FBBF24" stroke="none" /><path d="M 410,188 Z" fill="#FBBF24" stroke="none" /><path d="M 96,186 Z" fill="#FBBF24" stroke="none" /><path d="M 254,185 Z" fill="#FBBF24" stroke="none" /><path d="M 258,181 L 257,182 Z" fill="#FBBF24" stroke="none" /><path d="M 346,180 L 347,181 Z" fill="#FBBF24" stroke="none" /><path d="M 344,180 Z" fill="#FBBF24" stroke="none" /><path d="M 501,178 Z" fill="#FBBF24" stroke="none" /><path d="M 102,178 L 101,179 Z" fill="#FBBF24" stroke="none" /><path d="M 104,176 Z" fill="#FBBF24" stroke="none" /><path d="M 499,175 Z" fill="#FBBF24" stroke="none" /><path d="M 264,173 L 265,173 Z" fill="#FBBF24" stroke="none" /><path d="M 422,172 Z" fill="#FBBF24" stroke="none" /><path d="M 270,168 Z" fill="#FBBF24" stroke="none" /><path d="M 435,166 Z" fill="#FBBF24" stroke="none" /><path d="M 273,166 Z" fill="#FBBF24" stroke="none" /><path d="M 328,165 Z" fill="#FBBF24" stroke="none" /><path d="M 325,165 Z" fill="#FBBF24" stroke="none" /><path d="M 170,165 Z" fill="#FBBF24" stroke="none" /><path d="M 484,164 Z" fill="#FBBF24" stroke="none" /><path d="M 434,164 L 435,164 Z" fill="#FBBF24" stroke="none" /><path d="M 560,163 L 560,164 Z" fill="#FBBF24" stroke="none" /><path d="M 437,163 Z" fill="#FBBF24" stroke="none" /><path d="M 323,163 Z" fill="#FBBF24" stroke="none" /><path d="M 279,163 Z" fill="#FBBF24" stroke="none" /><path d="M 168,163 Z" fill="#FBBF24" stroke="none" /><path d="M 480,162 Z" fill="#FBBF24" stroke="none" /><path d="M 439,162 Z" fill="#FBBF24" stroke="none" /><path d="M 321,162 Z" fill="#FBBF24" stroke="none" /><path d="M 281,162 L 282,163 Z" fill="#FBBF24" stroke="none" /><path d="M 475,161 L 476,161 Z" fill="#FBBF24" stroke="none" /><path d="M 442,161 Z" fill="#FBBF24" stroke="none" /><path d="M 284,161 Z" fill="#FBBF24" stroke="none" /><path d="M 162,161 Z" fill="#FBBF24" stroke="none" /><path d="M 127,161 L 129,161 Z" fill="#FBBF24" stroke="none" /><path d="M 471,160 L 473,160 Z" fill="#FBBF24" stroke="none" /><path d="M 446,160 L 449,160 Z" fill="#FBBF24" stroke="none" /><path d="M 312,160 L 315,160 Z" fill="#FBBF24" stroke="none" /><path d="M 287,160 L 286,161 L 287,160 L 291,160 Z" fill="#FBBF24" stroke="none" /><path d="M 154,160 L 158,160 Z" fill="#FBBF24" stroke="none" /><path d="M 132,160 L 134,160 Z" fill="#FBBF24" stroke="none" /><path d="M 453,159 L 468,159 Z" fill="#FBBF24" stroke="none" /><path d="M 293,159 L 308,159 Z" fill="#FBBF24" stroke="none" /><path d="M 137,159 L 150,159 Z" fill="#FBBF24" stroke="none" /><path d="M 43,150 Z" fill="#FBBF24" stroke="none" /><path d="M 560,149 L 560,150 Z" fill="#FBBF24" stroke="none" /><path d="M 560,142 Z" fill="#FBBF24" stroke="none" /><path d="M 560,138 Z" fill="#FBBF24" stroke="none" /><path d="M 43,137 Z" fill="#FBBF24" stroke="none" /><path d="M 560,132 Z" fill="#FBBF24" stroke="none" /><path d="M 43,127 Z" fill="#FBBF24" stroke="none" /><path d="M 45,125 L 45,126 L 46,127 L 46,399 L 45,400 L 86,400 L 86,210 L 87,209 L 87,203 L 88,202 L 88,199 L 89,198 L 89,196 L 90,195 L 90,193 L 91,192 L 91,191 L 92,190 L 92,189 L 93,188 L 93,187 L 94,186 L 94,185 L 96,183 L 96,182 L 98,180 L 98,179 L 110,167 L 111,167 L 113,165 L 114,165 L 116,163 L 117,163 L 118,162 L 119,162 L 120,161 L 122,161 L 123,162 L 122,163 L 121,163 L 122,163 L 123,162 L 124,162 L 123,162 L 122,161 L 123,160 L 124,160 L 125,159 L 128,159 L 129,158 L 133,158 L 134,157 L 155,157 L 156,158 L 160,158 L 161,159 L 163,159 L 164,160 L 166,160 L 167,161 L 166,162 L 167,161 L 169,161 L 170,162 L 171,162 L 172,163 L 173,163 L 175,165 L 176,165 L 178,167 L 179,167 L 183,171 L 182,172 L 183,171 L 184,172 L 185,172 L 186,173 L 186,174 L 185,175 L 186,174 L 192,180 L 192,181 L 194,183 L 194,184 L 196,186 L 196,187 L 197,188 L 197,189 L 198,190 L 198,191 L 199,192 L 199,194 L 200,195 L 200,197 L 201,198 L 201,200 L 202,201 L 202,205 L 203,206 L 203,400 L 243,400 L 243,210 L 244,209 L 244,203 L 245,202 L 245,199 L 246,198 L 246,196 L 247,195 L 247,193 L 248,192 L 248,191 L 249,190 L 249,189 L 250,188 L 250,187 L 251,186 L 251,185 L 253,183 L 253,182 L 256,179 L 256,178 L 265,169 L 266,169 L 269,166 L 270,166 L 272,164 L 273,164 L 274,163 L 275,163 L 276,164 L 275,165 L 276,164 L 275,163 L 276,162 L 277,162 L 278,161 L 279,161 L 280,160 L 282,160 L 283,159 L 285,159 L 286,158 L 290,158 L 291,157 L 311,157 L 312,158 L 317,158 L 318,159 L 320,159 L 321,160 L 323,160 L 324,161 L 326,161 L 327,162 L 326,163 L 325,163 L 326,163 L 327,162 L 328,162 L 329,163 L 330,163 L 332,165 L 331,166 L 333,168 L 331,166 L 332,165 L 333,165 L 335,167 L 336,167 L 342,173 L 341,174 L 342,173 L 343,173 L 345,175 L 345,176 L 344,177 L 343,176 L 344,177 L 345,176 L 350,181 L 350,182 L 352,184 L 352,185 L 353,186 L 353,187 L 354,188 L 354,189 L 355,190 L 355,191 L 356,192 L 356,193 L 357,194 L 357,196 L 358,197 L 358,199 L 359,200 L 359,204 L 360,205 L 360,400 L 400,400 L 400,210 L 401,209 L 401,203 L 402,202 L 402,199 L 403,198 L 403,196 L 404,195 L 404,194 L 405,193 L 405,191 L 407,189 L 408,190 L 409,190 L 408,190 L 407,189 L 407,188 L 408,187 L 408,186 L 409,185 L 409,184 L 411,182 L 411,181 L 414,178 L 414,177 L 422,169 L 423,169 L 426,166 L 427,166 L 429,164 L 431,164 L 432,165 L 431,166 L 432,165 L 431,164 L 433,162 L 434,162 L 435,161 L 436,161 L 437,160 L 439,160 L 440,159 L 443,159 L 444,158 L 448,158 L 449,157 L 470,157 L 471,158 L 474,158 L 475,159 L 478,159 L 479,160 L 481,160 L 482,161 L 483,161 L 484,162 L 485,162 L 486,163 L 487,163 L 489,165 L 488,166 L 489,167 L 488,166 L 489,165 L 490,165 L 491,166 L 492,166 L 494,168 L 493,169 L 494,168 L 497,171 L 496,172 L 497,171 L 498,171 L 503,176 L 503,177 L 506,180 L 506,181 L 505,182 L 506,181 L 508,183 L 508,184 L 510,186 L 510,187 L 511,188 L 511,189 L 512,190 L 512,191 L 513,192 L 513,193 L 514,194 L 514,196 L 515,197 L 515,199 L 516,200 L 516,204 L 517,205 L 517,400 L 518,401 L 519,400 L 558,400 L 557,399 L 557,125 Z" fill="#FBBF24" stroke="none" /><path d="M 513,123 Z" fill="#FBBF24" stroke="none" /><path d="M 501,123 L 502,123 Z" fill="#FBBF24" stroke="none" /><path d="M 479,123 Z" fill="#FBBF24" stroke="none" /><path d="M 455,123 Z" fill="#FBBF24" stroke="none" /><path d="M 453,123 Z" fill="#FBBF24" stroke="none" /><path d="M 436,123 Z" fill="#FBBF24" stroke="none" /><path d="M 417,123 Z" fill="#FBBF24" stroke="none" /><path d="M 411,123 Z" fill="#FBBF24" stroke="none" /><path d="M 409,123 Z" fill="#FBBF24" stroke="none" /><path d="M 404,123 Z" fill="#FBBF24" stroke="none" /><path d="M 401,123 Z" fill="#FBBF24" stroke="none" /><path d="M 385,123 Z" fill="#FBBF24" stroke="none" /><path d="M 375,123 L 379,123 Z" fill="#FBBF24" stroke="none" /><path d="M 371,123 Z" fill="#FBBF24" stroke="none" /><path d="M 365,123 L 366,123 Z" fill="#FBBF24" stroke="none" /><path d="M 362,123 L 363,123 Z" fill="#FBBF24" stroke="none" /><path d="M 359,123 Z" fill="#FBBF24" stroke="none" /><path d="M 355,123 Z" fill="#FBBF24" stroke="none" /><path d="M 348,123 Z" fill="#FBBF24" stroke="none" /><path d="M 341,123 Z" fill="#FBBF24" stroke="none" /><path d="M 325,123 Z" fill="#FBBF24" stroke="none" /><path d="M 302,123 Z" fill="#FBBF24" stroke="none" /><path d="M 299,123 L 300,123 Z" fill="#FBBF24" stroke="none" /><path d="M 294,123 Z" fill="#FBBF24" stroke="none" /><path d="M 255,123 Z" fill="#FBBF24" stroke="none" /><path d="M 215,123 Z" fill="#FBBF24" stroke="none" /><path d="M 199,123 Z" fill="#FBBF24" stroke="none" /><path d="M 197,123 Z" fill="#FBBF24" stroke="none" /><path d="M 186,123 Z" fill="#FBBF24" stroke="none" /><path d="M 169,123 Z" fill="#FBBF24" stroke="none" /><path d="M 167,123 Z" fill="#FBBF24" stroke="none" /><path d="M 151,123 Z" fill="#FBBF24" stroke="none" /><path d="M 147,123 L 148,123 Z" fill="#FBBF24" stroke="none" /><path d="M 144,123 L 145,123 Z" fill="#FBBF24" stroke="none" /><path d="M 140,123 Z" fill="#FBBF24" stroke="none" /><path d="M 134,123 Z" fill="#FBBF24" stroke="none" /><path d="M 116,123 L 117,123 Z" fill="#FBBF24" stroke="none" /><path d="M 113,123 Z" fill="#FBBF24" stroke="none" /><path d="M 101,123 L 103,123 Z" fill="#FBBF24" stroke="none" /><path d="M 95,123 Z" fill="#FBBF24" stroke="none" /><path d="M 47,123 L 48,123 Z" fill="#FBBF24" stroke="none" /><path d="M 457,122 Z" fill="#FBBF24" stroke="none" /><path d="M 556,100 L 557,100 Z" fill="#FBBF24" stroke="none" /><path d="M 339,100 Z" fill="#FBBF24" stroke="none" /><path d="M 559,99 L 560,99 Z" fill="#FBBF24" stroke="none" /><path d="M 48,99 L 49,99 Z" fill="#FBBF24" stroke="none" /><path d="M 557,94 Z" fill="#FBBF24" stroke="none" /><path d="M 555,93 Z" fill="#FBBF24" stroke="none" /><path d="M 553,92 Z" fill="#FBBF24" stroke="none" /><path d="M 549,91 L 551,91 Z" fill="#FBBF24" stroke="none" /><path d="M 547,90 Z" fill="#FBBF24" stroke="none" /><path d="M 56,90 Z" fill="#FBBF24" stroke="none" /><path d="M 544,89 L 545,89 Z" fill="#FBBF24" stroke="none" /><path d="M 60,89 L 61,89 Z" fill="#FBBF24" stroke="none" /><path d="M 63,88 Z" fill="#FBBF24" stroke="none" /><path d="M 539,87 L 540,87 Z" fill="#FBBF24" stroke="none" /><path d="M 65,87 L 66,87 Z" fill="#FBBF24" stroke="none" /><path d="M 61,87 Z" fill="#FBBF24" stroke="none" /><path d="M 69,86 Z" fill="#FBBF24" stroke="none" /><path d="M 71,85 Z" fill="#FBBF24" stroke="none" /><path d="M 531,84 Z" fill="#FBBF24" stroke="none" /><path d="M 73,84 Z" fill="#FBBF24" stroke="none" /><path d="M 525,82 Z" fill="#FBBF24" stroke="none" /><path d="M 78,82 L 77,83 L 76,83 L 77,83 L 78,82 L 79,82 Z" fill="#FBBF24" stroke="none" /><path d="M 523,81 Z" fill="#FBBF24" stroke="none" /><path d="M 81,81 L 82,81 Z" fill="#FBBF24" stroke="none" /><path d="M 520,80 Z" fill="#FBBF24" stroke="none" /><path d="M 518,79 Z" fill="#FBBF24" stroke="none" /><path d="M 86,79 L 87,79 Z" fill="#FBBF24" stroke="none" /><path d="M 81,79 Z" fill="#FBBF24" stroke="none" /><path d="M 89,78 Z" fill="#FBBF24" stroke="none" /><path d="M 511,76 Z" fill="#FBBF24" stroke="none" /><path d="M 509,76 Z" fill="#FBBF24" stroke="none" /><path d="M 93,76 L 95,76 Z" fill="#FBBF24" stroke="none" /><path d="M 98,75 Z" fill="#FBBF24" stroke="none" /><path d="M 502,73 L 503,74 L 505,74 L 506,75 L 507,75 L 506,75 L 505,74 L 503,74 Z" fill="#FBBF24" stroke="none" /><path d="M 498,72 Z" fill="#FBBF24" stroke="none" /><path d="M 105,72 Z" fill="#FBBF24" stroke="none" /><path d="M 495,71 L 496,71 Z" fill="#FBBF24" stroke="none" /><path d="M 107,71 Z" fill="#FBBF24" stroke="none" /><path d="M 110,70 Z" fill="#FBBF24" stroke="none" /><path d="M 491,69 L 492,69 L 493,70 L 492,69 Z" fill="#FBBF24" stroke="none" /><path d="M 112,69 Z" fill="#FBBF24" stroke="none" /><path d="M 115,68 L 116,68 Z" fill="#FBBF24" stroke="none" /><path d="M 117,66 Z" fill="#FBBF24" stroke="none" /><path d="M 122,64 L 123,65 Z" fill="#FBBF24" stroke="none" /><path d="M 482,63 Z" fill="#FBBF24" stroke="none" /><path d="M 477,63 L 477,64 L 478,64 L 479,65 L 480,65 L 479,65 Z" fill="#FBBF24" stroke="none" /><path d="M 474,63 Z" fill="#FBBF24" stroke="none" /><path d="M 132,62 Z" fill="#FBBF24" stroke="none" /><path d="M 134,61 Z" fill="#FBBF24" stroke="none" /><path d="M 136,60 L 137,60 Z" fill="#FBBF24" stroke="none" /><path d="M 463,59 L 464,59 Z" fill="#FBBF24" stroke="none" /><path d="M 140,59 Z" fill="#FBBF24" stroke="none" /><path d="M 458,57 Z" fill="#FBBF24" stroke="none" /><path d="M 145,57 Z" fill="#FBBF24" stroke="none" /><path d="M 143,57 L 142,58 L 143,58 Z" fill="#FBBF24" stroke="none" /><path d="M 149,55 L 150,55 Z" fill="#FBBF24" stroke="none" /><path d="M 450,54 Z" fill="#FBBF24" stroke="none" /><path d="M 152,54 L 153,54 Z" fill="#FBBF24" stroke="none" /><path d="M 447,53 L 448,53 Z" fill="#FBBF24" stroke="none" /><path d="M 155,53 L 156,53 Z" fill="#FBBF24" stroke="none" /><path d="M 445,52 Z" fill="#FBBF24" stroke="none" /><path d="M 442,51 L 443,51 Z" fill="#FBBF24" stroke="none" /><path d="M 162,51 Z" fill="#FBBF24" stroke="none" /><path d="M 158,51 L 158,52 Z" fill="#FBBF24" stroke="none" /><path d="M 439,50 L 440,50 Z" fill="#FBBF24" stroke="none" /><path d="M 437,49 Z" fill="#FBBF24" stroke="none" /><path d="M 433,48 L 434,48 Z" fill="#FBBF24" stroke="none" /><path d="M 168,48 L 167,49 L 168,48 L 169,48 Z" fill="#FBBF24" stroke="none" /><path d="M 431,47 Z" fill="#FBBF24" stroke="none" /><path d="M 427,45 Z" fill="#FBBF24" stroke="none" /><path d="M 425,45 Z" fill="#FBBF24" stroke="none" /><path d="M 176,45 Z" fill="#FBBF24" stroke="none" /><path d="M 423,44 Z" fill="#FBBF24" stroke="none" /><path d="M 420,43 L 421,43 Z" fill="#FBBF24" stroke="none" /><path d="M 182,43 L 183,43 Z" fill="#FBBF24" stroke="none" /><path d="M 417,42 L 418,42 Z" fill="#FBBF24" stroke="none" /><path d="M 185,42 Z" fill="#FBBF24" stroke="none" /><path d="M 415,41 Z" fill="#FBBF24" stroke="none" /><path d="M 420,40 Z" fill="#FBBF24" stroke="none" /><path d="M 412,40 L 413,40 Z" fill="#FBBF24" stroke="none" /><path d="M 191,40 Z" fill="#FBBF24" stroke="none" /><path d="M 189,40 L 188,41 Z" fill="#FBBF24" stroke="none" /><path d="M 183,40 Z" fill="#FBBF24" stroke="none" /><path d="M 197,37 L 196,38 Z" fill="#FBBF24" stroke="none" /><path d="M 201,36 Z" fill="#FBBF24" stroke="none" /><path d="M 403,35 L 405,37 L 406,37 L 407,38 L 408,38 L 409,39 L 408,38 L 407,38 L 406,37 L 405,37 Z" fill="#FBBF24" stroke="none" /><path d="M 400,35 L 401,36 Z" fill="#FBBF24" stroke="none" /><path d="M 396,34 L 397,34 L 398,35 L 397,34 Z" fill="#FBBF24" stroke="none" /><path d="M 393,33 L 394,33 Z" fill="#FBBF24" stroke="none" /><path d="M 208,33 Z" fill="#FBBF24" stroke="none" /><path d="M 390,32 L 391,32 Z" fill="#FBBF24" stroke="none" /><path d="M 395,31 Z" fill="#FBBF24" stroke="none" /><path d="M 386,30 Z" fill="#FBBF24" stroke="none" /><path d="M 217,30 L 216,31 L 217,30 L 218,30 Z" fill="#FBBF24" stroke="none" /><path d="M 382,29 L 383,29 Z" fill="#FBBF24" stroke="none" /><path d="M 376,27 L 377,27 Z" fill="#FBBF24" stroke="none" /><path d="M 374,26 Z" fill="#FBBF24" stroke="none" /><path d="M 227,26 L 226,27 Z" fill="#FBBF24" stroke="none" /><path d="M 372,25 Z" fill="#FBBF24" stroke="none" /><path d="M 231,25 Z" fill="#FBBF24" stroke="none" /><path d="M 234,24 Z" fill="#FBBF24" stroke="none" /><path d="M 367,23 L 368,24 L 369,24 L 368,24 Z" fill="#FBBF24" stroke="none" /><path d="M 238,22 L 239,22 Z" fill="#FBBF24" stroke="none" /><path d="M 358,20 L 359,20 Z" fill="#FBBF24" stroke="none" /><path d="M 243,20 L 242,21 L 243,20 L 244,20 Z" fill="#FBBF24" stroke="none" /><path d="M 355,19 Z" fill="#FBBF24" stroke="none" /><path d="M 246,19 Z" fill="#FBBF24" stroke="none" /><path d="M 250,18 Z" fill="#FBBF24" stroke="none" /><path d="M 253,17 Z" fill="#FBBF24" stroke="none" /><path d="M 255,16 Z" fill="#FBBF24" stroke="none" /><path d="M 346,15 L 346,16 L 348,16 L 349,17 L 351,17 L 352,18 L 351,17 L 349,17 L 348,16 L 347,16 Z" fill="#FBBF24" stroke="none" /><path d="M 257,15 L 259,15 Z" fill="#FBBF24" stroke="none" /><path d="M 341,14 Z" fill="#FBBF24" stroke="none" /><path d="M 263,13 Z" fill="#FBBF24" stroke="none" /><path d="M 337,12 Z" fill="#FBBF24" stroke="none" /><path d="M 266,12 Z" fill="#FBBF24" stroke="none" /><path d="M 272,10 Z" fill="#FBBF24" stroke="none" /><path d="M 332,9 Z" fill="#FBBF24" stroke="none" /><path d="M 328,9 Z" fill="#FBBF24" stroke="none" /><path d="M 275,9 Z" fill="#FBBF24" stroke="none" /><path d="M 324,7 L 325,8 Z" fill="#FBBF24" stroke="none" /><path d="M 280,7 Z" fill="#FBBF24" stroke="none" /><path d="M 278,7 Z" fill="#FBBF24" stroke="none" /><path d="M 282,6 L 283,6 Z" fill="#FBBF24" stroke="none" /><path d="M 286,4 L 285,5 Z" fill="#FBBF24" stroke="none" /><path d="M 316,3 L 315,4 Z" fill="#FBBF24" stroke="none" /><path d="M 310,2 L 311,2 L 312,3 L 313,3 L 312,3 L 311,2 Z" fill="#FBBF24" stroke="none" /><path d="M 293,2 L 294,2 Z" fill="#FBBF24" stroke="none" /><path d="M 307,1 Z" fill="#FBBF24" stroke="none" /><path d="M 301,1 L 300,2 L 298,2 L 297,3 L 296,3 L 295,4 L 293,4 L 292,5 L 290,5 L 289,6 L 287,6 L 286,7 L 285,7 L 284,8 L 282,8 L 281,9 L 279,9 L 278,10 L 277,10 L 276,11 L 274,11 L 273,12 L 271,12 L 270,11 L 268,11 L 270,11 L 271,12 L 270,13 L 269,13 L 268,14 L 266,14 L 265,15 L 263,15 L 262,16 L 261,16 L 260,17 L 258,17 L 257,18 L 255,18 L 254,19 L 252,19 L 251,20 L 250,20 L 249,21 L 247,21 L 246,22 L 244,22 L 243,23 L 242,23 L 241,24 L 239,24 L 238,25 L 236,25 L 235,26 L 233,26 L 232,27 L 231,27 L 230,28 L 228,28 L 227,29 L 226,29 L 225,30 L 223,30 L 222,31 L 220,31 L 219,32 L 218,32 L 217,33 L 215,33 L 214,34 L 212,34 L 211,35 L 210,35 L 209,36 L 207,36 L 206,37 L 204,37 L 203,38 L 201,38 L 200,39 L 199,39 L 198,40 L 196,40 L 195,41 L 193,41 L 192,42 L 190,42 L 189,43 L 188,43 L 187,44 L 185,44 L 184,45 L 182,45 L 181,46 L 180,46 L 179,47 L 177,47 L 176,48 L 174,48 L 173,47 L 174,48 L 173,49 L 172,49 L 171,50 L 169,50 L 168,51 L 166,51 L 165,52 L 164,52 L 163,53 L 161,53 L 160,54 L 158,54 L 157,55 L 156,55 L 155,56 L 153,56 L 152,57 L 150,57 L 149,58 L 148,58 L 147,59 L 145,59 L 144,60 L 142,60 L 141,61 L 139,61 L 138,62 L 137,62 L 136,63 L 134,63 L 133,64 L 131,64 L 130,65 L 129,65 L 128,66 L 126,66 L 125,67 L 122,67 L 121,66 L 121,67 L 120,68 L 119,67 L 120,68 L 119,69 L 118,69 L 117,70 L 115,70 L 114,71 L 112,71 L 111,72 L 110,72 L 109,73 L 107,73 L 106,74 L 105,74 L 104,75 L 102,75 L 101,74 L 102,73 L 101,74 L 102,75 L 101,76 L 100,76 L 99,77 L 97,77 L 96,78 L 94,78 L 93,79 L 91,79 L 90,80 L 89,80 L 88,81 L 86,81 L 85,82 L 84,82 L 83,83 L 81,83 L 80,84 L 79,84 L 78,85 L 76,85 L 75,86 L 73,86 L 72,87 L 71,87 L 70,88 L 68,88 L 67,89 L 66,89 L 65,90 L 63,90 L 62,91 L 60,91 L 59,92 L 58,92 L 57,93 L 55,93 L 54,94 L 53,94 L 52,95 L 50,95 L 49,94 L 50,93 L 49,94 L 48,94 L 49,94 L 50,95 L 49,96 L 47,96 L 46,97 L 559,97 L 558,96 L 556,96 L 555,95 L 553,95 L 552,94 L 551,94 L 550,93 L 548,93 L 547,92 L 545,92 L 544,91 L 543,91 L 542,90 L 540,90 L 539,89 L 537,89 L 536,88 L 535,88 L 534,87 L 532,87 L 531,86 L 529,86 L 528,85 L 527,85 L 526,84 L 524,84 L 523,83 L 521,83 L 520,82 L 519,82 L 518,81 L 516,81 L 515,80 L 516,79 L 515,80 L 513,80 L 512,79 L 511,79 L 510,78 L 508,78 L 507,77 L 505,77 L 504,76 L 502,76 L 501,75 L 500,75 L 499,74 L 497,74 L 496,73 L 494,73 L 493,72 L 492,72 L 491,71 L 489,71 L 488,70 L 487,70 L 486,69 L 487,68 L 487,67 L 485,67 L 484,66 L 483,66 L 482,65 L 482,66 L 484,66 L 485,67 L 486,67 L 487,68 L 486,69 L 484,69 L 483,68 L 481,68 L 480,67 L 478,67 L 477,66 L 476,66 L 475,65 L 473,65 L 472,64 L 471,64 L 470,63 L 471,62 L 472,62 L 471,62 L 470,61 L 469,61 L 468,60 L 466,60 L 468,60 L 469,61 L 470,61 L 471,62 L 470,63 L 468,63 L 467,62 L 465,62 L 464,61 L 462,61 L 461,60 L 459,60 L 458,59 L 457,59 L 456,58 L 454,58 L 453,57 L 451,57 L 450,56 L 448,56 L 447,55 L 446,55 L 445,54 L 443,54 L 442,53 L 440,53 L 439,52 L 438,52 L 437,51 L 435,51 L 434,50 L 432,50 L 431,49 L 429,49 L 428,48 L 427,48 L 426,47 L 424,47 L 423,46 L 421,46 L 420,45 L 419,45 L 418,44 L 416,44 L 415,43 L 413,43 L 412,42 L 411,42 L 410,41 L 408,41 L 407,40 L 405,40 L 404,39 L 403,39 L 402,38 L 400,38 L 399,37 L 397,37 L 396,36 L 394,36 L 393,35 L 392,35 L 391,34 L 389,34 L 388,33 L 386,33 L 385,32 L 384,32 L 383,31 L 381,31 L 380,30 L 378,30 L 377,29 L 375,29 L 374,28 L 373,28 L 372,27 L 370,27 L 369,26 L 367,26 L 366,25 L 365,25 L 364,24 L 362,24 L 361,23 L 359,23 L 358,22 L 356,22 L 355,21 L 354,21 L 353,20 L 351,20 L 350,19 L 348,19 L 347,18 L 345,18 L 344,17 L 343,17 L 342,16 L 343,15 L 344,15 L 343,15 L 342,16 L 340,16 L 339,15 L 338,15 L 337,14 L 335,14 L 334,13 L 332,13 L 331,12 L 329,12 L 328,11 L 327,11 L 326,10 L 324,10 L 323,9 L 321,9 L 320,8 L 319,8 L 318,7 L 319,6 L 320,6 L 319,6 L 318,5 L 317,5 L 318,5 L 319,6 L 318,7 L 316,7 L 315,6 L 313,6 L 312,5 L 311,5 L 310,4 L 308,4 L 307,3 L 305,3 L 304,2 L 302,2 Z" fill="#FBBF24" stroke="none" /><path d="M 304,0 Z" fill="#FBBF24" stroke="none" /><path d="M 299,0 Z" fill="#FBBF24" stroke="none" /></svg>