<?xml version="1.0" encoding="UTF-8"?>
<svg xmlns="http://www.w3.org/2000/svg" viewBox="0 0 1024 1024" width="1024" height="1024">
  <style>
    :root {
      --paper: #d8cfb4;     /* warm beige background */
      --ink:   #5f6e76;     /* slate blue-gray linework */
      --ink-2: #506069;     /* slightly darker for outlines */
    }
    .outline { stroke: var(--ink-2); stroke-width: 10; fill: none; stroke-linejoin: round; }
    .hatch   { fill: url(#hatch); stroke: var(--ink-2); stroke-width: 10; stroke-linejoin: round; }
  </style>

  <!-- Background (stone paper) -->
  <rect width="1024" height="1024" fill="var(--paper)"/>

  <defs>
    <!-- Cross-hatch pattern for the etched look -->
    <pattern id="hatch" patternUnits="userSpaceOnUse" width="12" height="12" patternTransform="rotate(-12)">
      <rect width="12" height="12" fill="none"/>
      <path d="M -3 9 L 9 -3 M 3 15 L 15 3" stroke="var(--ink)" stroke-width="1.25" opacity="0.35"/>
    </pattern>

    <!-- Reusable arch path -->
    <path id="arch-shape" d="
      M 0 0
      L 0 -260
      A 75 75 0 0 1 150 -260
      L 150 0 Z" />
  </defs>

  <!-- Temple body -->
  <rect x="210" y="398" width="604" height="298" class="hatch" rx="6"/>
  <polygon points="512,300 194,398 830,398" class="hatch"/>
  <rect x="210" y="716" width="604" height="34" class="hatch" rx="4"/>
  <rect x="170" y="764" width="684" height="40" class="hatch" rx="4"/>

  <!-- Arches (cut-out effect) -->
  <g transform="translate(262 698)" fill="var(--paper)" stroke="var(--ink-2)" stroke-width="10" stroke-linejoin="round">
    <use href="#arch-shape" transform="translate(0 0)"/>
    <use href="#arch-shape" transform="translate(212 0)"/>
    <use href="#arch-shape" transform="translate(424 0)"/>
  </g>

  <!-- Subtle inner hatch on arches -->
  <g transform="translate(262 698)" opacity="0.25">
    <use href="#arch-shape" transform="translate(0 0)" fill="url(#hatch)" stroke="none"/>
    <use href="#arch-shape" transform="translate(212 0)" fill="url(#hatch)" stroke="none"/>
    <use href="#arch-shape" transform="translate(424 0)" fill="url(#hatch)" stroke="none"/>
  </g>

  <!-- Outlines -->
  <polygon points="512,300 194,398 830,398" class="outline"/>
  <rect x="210" y="398" width="604" height="298" class="outline" rx="6"/>
  <rect x="210" y="716" width="604" height="34" class="outline" rx="4"/>
  <rect x="170" y="764" width="684" height="40" class="outline" rx="4"/>
</svg>
